<svg xmlns="http://www.w3.org/2000/svg" version="1.1" xmlns:xlink="http://www.w3.org/1999/xlink" xmlns:svgjs="http://svgjs.com/svgjs" width="512" height="512" preserveAspectRatio="none" viewBox="0 0 512 512"><g mask="url(&quot;#SvgjsMask1315&quot;)" fill="none"><rect width="86.4" height="86.4" clip-path="url(&quot;#SvgjsClipPath1316&quot;)" x="-8.03" y="101.78" fill="url(#SvgjsPattern1317)" transform="rotate(105.16, 35.17, 144.98)"></rect><rect width="144" height="144" clip-path="url(&quot;#SvgjsClipPath1318&quot;)" x="433.42" y="-35.04" fill="url(#SvgjsPattern1319)" transform="rotate(213.51, 505.42, 36.96)"></rect><circle r="42.666666666666664" cx="378.06" cy="255.89" fill="rgba(107, 38, 253, 1)"></circle><path d="M311.86 363.11L321.6 371.42 315.63 382.75 325.37 391.07 319.4 402.39 329.14 410.71 323.17 422.04" stroke="rgba(54, 0, 131, 1)" stroke-width="1.77" stroke-dasharray="4, 4"></path><rect width="265.6" height="265.6" clip-path="url(&quot;#SvgjsClipPath1320&quot;)" x="288.04" y="310.87" fill="url(#SvgjsPattern1321)" transform="rotate(145.92, 420.84, 443.67)"></rect></g><defs><mask id="SvgjsMask1315"><rect width="512" height="512" fill="#ffffff"></rect></mask><pattern x="0" y="0" width="8.64" height="8.64" patternUnits="userSpaceOnUse" id="SvgjsPattern1317"><path d="M0 8.64L4.32 0L8.64 8.64" stroke="rgba(0, 5, 65, 1)" fill="none"></path></pattern><clipPath id="SvgjsClipPath1316"><circle r="21.6" cx="35.17" cy="144.98"></circle></clipPath><pattern x="0" y="0" width="6" height="6" patternUnits="userSpaceOnUse" id="SvgjsPattern1319"><path d="M3 1L3 5M1 3L5 3" stroke="rgba(54, 0, 131, 1)" fill="none" stroke-width="1"></path></pattern><clipPath id="SvgjsClipPath1318"><circle r="36" cx="505.42" cy="36.96"></circle></clipPath><pattern x="0" y="0" width="6.64" height="6.64" patternUnits="userSpaceOnUse" id="SvgjsPattern1321"><path d="M3.32 1L3.32 5.64M1 3.32L5.64 3.32" stroke="rgba(108, 119, 246, 1)" fill="none" stroke-width="1"></path></pattern><clipPath id="SvgjsClipPath1320"><circle r="66.4" cx="420.84" cy="443.67"></circle></clipPath></defs></svg>